<svg xmlns="http://www.w3.org/2000/svg" version="1.1" xmlns:xlink="http://www.w3.org/1999/xlink" xmlns:svgjs="http://svgjs.dev/svgjs" width="128" height="128" viewBox="0 0 128 128"><g transform="matrix(0.8046875,0,0,0.8046875,12.760752631578946,14.452548598536836)"><svg viewBox="0 0 95 92" data-background-color="#ffffff" preserveAspectRatio="xMidYMid meet" height="123" width="128" xmlns="http://www.w3.org/2000/svg" xmlns:xlink="http://www.w3.org/1999/xlink"><g id="tight-bounds" transform="matrix(1,0,0,1,-0.24049999999999727,0.05499942407689673)"><svg viewBox="0 0 95.481 91.8900011518462" height="91.8900011518462" width="95.481"><g><svg viewBox="0 0 95.481 91.8900011518462" height="91.8900011518462" width="95.481"><g><svg viewBox="0 0 95.481 91.8900011518462" height="91.8900011518462" width="95.481"><g id="textblocktransform"><svg viewBox="0 0 95.481 91.8900011518462" height="91.8900011518462" width="95.481" id="textblock"><g><svg viewBox="0 0 95.481 91.8900011518462" height="91.8900011518462" width="95.481"><g><svg viewBox="0 0 95.481 91.8900011518462" height="91.8900011518462" width="95.481"><g><svg xmlns="http://www.w3.org/2000/svg" xmlns:xlink="http://www.w3.org/1999/xlink" version="1.1" x="0" y="0" viewBox="1.2939999999999998 3.7839902480806265 97.342 93.68100975191938" enable-background="new 0 0 100 100" xml:space="preserve" height="91.8900011518462" width="95.481" class="icon-icon-0" data-fill-palette-color="accent" id="icon-0"><g fill="#2563eb" data-fill-palette-color="accent"><path d="M75.984 64.604H23.601c1.72 3.613 12.79 6.4 26.192 6.4C63.193 71.004 74.266 68.217 75.984 64.604L75.984 64.604zM6.639 54.232c-0.164 3.265 3.689 6.716 8.606 7.703 4.916 0.989 9.033-0.854 9.197-4.119 0.164-3.268-3.689-6.717-8.605-7.706C10.92 49.121 6.803 50.967 6.639 54.232L6.639 54.232zM49.791 8.024C38.698 8.095 25.766 8.495 15.15 11.048c-0.942 0.18-1.053 1.171-1.053 1.171l-0.909 24.142c-0.078 4.187 4.705 6.09 36.602 6.191 31.899-0.101 36.681-2.004 36.604-6.191l-0.91-24.142c0 0-0.109-0.991-1.053-1.171C73.814 8.495 60.884 8.095 49.791 8.024L49.791 8.024zM92.941 54.232c-0.164-3.267-4.279-5.112-9.195-4.122-4.916 0.989-8.77 4.438-8.605 7.706 0.164 3.266 4.28 5.108 9.196 4.119C89.255 60.948 93.105 57.497 92.941 54.232L92.941 54.232zM49.966 88.538l-2.916-0.002c-10.834-0.041-21.461-0.251-30.302-0.9v4.933c0 2.705-2.192 4.896-4.896 4.896H7.826c-2.704 0-4.896-2.188-4.896-4.896V82.268c-0.105-0.916-0.216-1.97-0.324-3.147-0.832-4.317-1.312-9.418-1.312-14.886 0-6.932 0.774-13.28 2.056-18.184 0.254-1.117 0.562-2.114 0.911-3.003 0.107-0.305 0.218-0.602 0.33-0.891L9.462 8.825c0 0 0.196-1.388 1.439-1.698 11.178-3.042 38.13-3.345 39.065-3.343 0.933-0.002 27.888 0.301 39.063 3.343 1.242 0.31 1.441 1.698 1.441 1.698l4.868 33.332c0.111 0.289 0.224 0.586 0.33 0.891 0.349 0.889 0.656 1.886 0.912 3.003 1.28 4.903 2.056 11.252 2.056 18.184 0 5.468-0.48 10.567-1.312 14.886-0.108 1.179-0.219 2.231-0.325 3.147v10.301c0 2.705-2.19 4.896-4.894 4.896h-4.027c-2.703 0-4.896-2.188-4.896-4.896v-4.932c-8.841 0.648-19.467 0.858-30.302 0.899L49.966 88.538 49.966 88.538z" fill="#2563eb" data-fill-palette-color="accent"></path></g></svg></g></svg></g></svg></g></svg></g></svg></g></svg></g><defs></defs></svg><rect width="95.481" height="91.8900011518462" fill="none" stroke="none" visibility="hidden"></rect></g></svg></g></svg>