<svg xmlns="http://www.w3.org/2000/svg" version="1.1" xmlns:xlink="http://www.w3.org/1999/xlink" xmlns:svgjs="http://svgjs.dev/svgjs" width="1000" height="136" viewBox="0 0 1000 136"><g transform="matrix(1,0,0,1,-0.6060604986784028,-0.5627193240411117)"><svg viewBox="0 0 396 54" data-background-color="#ffffff" preserveAspectRatio="xMidYMid meet" height="136" width="1000" xmlns="http://www.w3.org/2000/svg" xmlns:xlink="http://www.w3.org/1999/xlink"><g id="tight-bounds" transform="matrix(1,0,0,1,0.24000004252343388,0.22343267278102985)"><svg viewBox="0 0 395.52 53.55313465443793" height="53.55313465443793" width="395.52"><g><svg viewBox="0 0 473.0080835328838 64.04496761244476" height="53.55313465443793" width="395.52"><g transform="matrix(1,0,0,1,77.48808353288383,8.851366725019503)"><svg viewBox="0 0 395.52 46.34223416240576" height="46.34223416240576" width="395.52"><g id="textblocktransform"><svg viewBox="0 0 395.52 46.34223416240576" height="46.34223416240576" width="395.52" id="textblock"><g><svg viewBox="0 0 395.52 46.34223416240576" height="46.34223416240576" width="395.52"><g transform="matrix(1,0,0,1,0,0)"><svg width="395.52" viewBox="4.650000095367432 -33.099998474121094 287.33001708984375 33.79999923706055" height="46.34223416240576" data-palette-color="#2563eb"><g class="wordmark-text-0" data-fill-palette-color="primary" id="text-0"><path d="M10.55 0L4.65 0 4.65-32.45 25.1-32.45 25.1-27.35 10.55-27.35 10.55-18.8 23.85-18.8 23.85-13.75 10.55-13.75 10.55 0ZM44.37 0.7L44.37 0.7Q40.05 0.7 36.73-1.2 33.42-3.1 31.55-6.88 29.67-10.65 29.67-16.25L29.67-16.25Q29.67-21.95 31.55-25.69 33.42-29.43 36.73-31.26 40.05-33.1 44.37-33.1L44.37-33.1Q48.72-33.1 52.05-31.21 55.37-29.33 57.25-25.58 59.12-21.83 59.12-16.25L59.12-16.25Q59.12-10.58 57.25-6.8 55.37-3.03 52.05-1.16 48.72 0.7 44.37 0.7ZM44.37-4.65L44.37-4.65Q48.35-4.65 50.69-7.65 53.02-10.65 53.02-16.3L53.02-16.3Q53.02-21.75 50.69-24.78 48.35-27.8 44.37-27.8L44.37-27.8Q40.47-27.8 38.12-24.76 35.77-21.73 35.77-16.25L35.77-16.25Q35.77-10.63 38.12-7.64 40.47-4.65 44.37-4.65ZM72 0L66.1 0 66.1-32.45 78.1-32.45Q83.92-32.45 87.03-29.73 90.15-27 90.15-22.5L90.15-22.5Q90.15-18.07 87.03-15.36 83.92-12.65 78.1-12.65L78.1-12.65 72-12.65 72 0ZM91.35 0L83.65 0 75.05-15.2 81.35-15.2 91.35 0ZM72-27.35L72-16.6 77.5-16.6Q80.75-16.6 82.42-18.09 84.1-19.58 84.1-21.95L84.1-21.95Q84.1-24.38 82.57-25.86 81.05-27.35 78.1-27.35L78.1-27.35 72-27.35ZM121.82 0L97.27 0 97.27-5.1 116.12-29.15 116.12-27 97.27-27.05 97.27-32.45 121.82-32.45 121.82-27.4 104.12-4.7 103.97-5.45 121.82-5.4 121.82 0ZM132.39 0L126.14 0 137.19-32.45 144.59-32.45 155.19 0 148.99 0 146.74-7 134.69-7 132.39 0ZM140.79-25.4L136.19-11.45 145.34-11.45 140.79-25.4Z" fill="#2563eb" data-fill-palette-color="primary"></path><path d="M175.19 0L168.94 0 179.99-32.45 187.39-32.45 197.99 0 191.79 0 189.54-7 177.49-7 175.19 0ZM183.59-25.4L178.99-11.45 188.14-11.45 183.59-25.4ZM203.26-12.25L203.26-32.45 209.16-32.45 209.16-12.25Q209.16-8.25 211.2-6.48 213.24-4.7 216.41-4.7L216.41-4.7Q219.61-4.7 221.64-6.48 223.66-8.25 223.66-12.25L223.66-12.25 223.66-32.45 229.56-32.45 229.56-12.25Q229.56-8.15 227.99-5.25 226.41-2.35 223.47-0.83 220.53 0.7 216.41 0.7L216.41 0.7Q212.28 0.7 209.35-0.83 206.41-2.35 204.84-5.25 203.26-8.15 203.26-12.25L203.26-12.25ZM245.28-27.35L233.91-27.35 233.91-32.45 259.91-32.45 259.91-27.35 248.53-27.35 249.86-28.7 249.86 0 243.96 0 243.96-28.7 245.28-27.35ZM277.23 0.7L277.23 0.7Q272.91 0.7 269.59-1.2 266.28-3.1 264.41-6.88 262.53-10.65 262.53-16.25L262.53-16.25Q262.53-21.95 264.41-25.69 266.28-29.43 269.59-31.26 272.91-33.1 277.23-33.1L277.23-33.1Q281.58-33.1 284.91-31.21 288.23-29.33 290.11-25.58 291.98-21.83 291.98-16.25L291.98-16.25Q291.98-10.58 290.11-6.8 288.23-3.03 284.91-1.16 281.58 0.7 277.23 0.7ZM277.23-4.65L277.23-4.65Q281.21-4.65 283.54-7.65 285.88-10.65 285.88-16.3L285.88-16.3Q285.88-21.75 283.54-24.78 281.21-27.8 277.23-27.8L277.23-27.8Q273.33-27.8 270.98-24.76 268.63-21.73 268.63-16.25L268.63-16.25Q268.63-10.63 270.98-7.64 273.33-4.65 277.23-4.65Z" fill="#332885" data-fill-palette-color="secondary"></path></g></svg></g></svg></g></svg></g></svg></g><g><svg viewBox="0 0 66.54779426075973 64.04496761244476" height="64.04496761244476" width="66.54779426075973"><g><svg xmlns="http://www.w3.org/2000/svg" xmlns:xlink="http://www.w3.org/1999/xlink" version="1.1" x="0" y="0" viewBox="1.2940001487731934 3.783989906311035 97.34200286865234 93.68102264404297" enable-background="new 0 0 100 100" xml:space="preserve" height="64.04496761244476" width="66.54779426075973" class="icon-icon-0" data-fill-palette-color="accent" id="icon-0"><g fill="#2563eb" data-fill-palette-color="accent"><path d="M75.984 64.604H23.601c1.72 3.613 12.79 6.4 26.192 6.4C63.193 71.004 74.266 68.217 75.984 64.604L75.984 64.604zM6.639 54.232c-0.164 3.265 3.689 6.716 8.606 7.703 4.916 0.989 9.033-0.854 9.197-4.119 0.164-3.268-3.689-6.717-8.605-7.706C10.92 49.121 6.803 50.967 6.639 54.232L6.639 54.232zM49.791 8.024C38.698 8.095 25.766 8.495 15.15 11.048c-0.942 0.18-1.053 1.171-1.053 1.171l-0.909 24.142c-0.078 4.187 4.705 6.09 36.602 6.191 31.899-0.101 36.681-2.004 36.604-6.191l-0.91-24.142c0 0-0.109-0.991-1.053-1.171C73.814 8.495 60.884 8.095 49.791 8.024L49.791 8.024zM92.941 54.232c-0.164-3.267-4.279-5.112-9.195-4.122-4.916 0.989-8.77 4.438-8.605 7.706 0.164 3.266 4.28 5.108 9.196 4.119C89.255 60.948 93.105 57.497 92.941 54.232L92.941 54.232zM49.966 88.538l-2.916-0.002c-10.834-0.041-21.461-0.251-30.302-0.9v4.933c0 2.705-2.192 4.896-4.896 4.896H7.826c-2.704 0-4.896-2.188-4.896-4.896V82.268c-0.105-0.916-0.216-1.97-0.324-3.147-0.832-4.317-1.312-9.418-1.312-14.886 0-6.932 0.774-13.28 2.056-18.184 0.254-1.117 0.562-2.114 0.911-3.003 0.107-0.305 0.218-0.602 0.33-0.891L9.462 8.825c0 0 0.196-1.388 1.439-1.698 11.178-3.042 38.13-3.345 39.065-3.343 0.933-0.002 27.888 0.301 39.063 3.343 1.242 0.31 1.441 1.698 1.441 1.698l4.868 33.332c0.111 0.289 0.224 0.586 0.33 0.891 0.349 0.889 0.656 1.886 0.912 3.003 1.28 4.903 2.056 11.252 2.056 18.184 0 5.468-0.48 10.567-1.312 14.886-0.108 1.179-0.219 2.231-0.325 3.147v10.301c0 2.705-2.19 4.896-4.894 4.896h-4.027c-2.703 0-4.896-2.188-4.896-4.896v-4.932c-8.841 0.648-19.467 0.858-30.302 0.899L49.966 88.538 49.966 88.538z" fill="#2563eb" data-fill-palette-color="accent"></path></g></svg></g></svg></g></svg></g><defs></defs></svg><rect width="395.52" height="53.55313465443793" fill="none" stroke="none" visibility="hidden"></rect></g></svg></g></svg>